<svg width="64" height="60" viewBox="0 0 64 60" fill="none" xmlns="http://www.w3.org/2000/svg">
<path d="M39.0791 36.0938C38.3955 35.9147 37.7119 35.7438 37.0283 35.5811C36.361 35.402 35.6774 35.2393 34.9775 35.0928C34.1475 36.7855 33.2686 38.4456 32.3408 40.0732C31.4131 41.7008 30.4284 43.304 29.3867 44.8828C28.5892 46.0872 27.694 47.2673 26.7012 48.4229C25.7246 49.5785 24.6829 50.6608 23.5762 51.6699C22.4857 52.6953 21.3464 53.6312 20.1582 54.4775C18.9863 55.3402 17.7982 56.0807 16.5938 56.6992C15.4056 57.334 14.2174 57.8223 13.0293 58.1641C11.8574 58.5059 10.7181 58.6768 9.61133 58.6768C8.61849 58.6768 7.61751 58.4977 6.6084 58.1396C5.59928 57.7979 4.69596 57.277 3.89844 56.5771C3.08464 55.8773 2.42546 54.9984 1.9209 53.9404C1.41634 52.8988 1.16406 51.6699 1.16406 50.2539C1.16406 49.5215 1.25358 48.7484 1.43262 47.9346C1.59538 47.1208 1.87207 46.2826 2.2627 45.4199C2.65332 44.5573 3.15788 43.6702 3.77637 42.7588C4.39486 41.8636 5.15169 40.944 6.04688 40C7.23503 38.7467 8.56966 37.6644 10.0508 36.7529C11.5156 35.8415 13.0781 35.0928 14.7383 34.5068C16.3984 33.9046 18.1318 33.4652 19.9385 33.1885C21.7451 32.8955 23.5762 32.749 25.4316 32.749C26.6523 32.749 27.8649 32.806 29.0693 32.9199C30.29 33.0339 31.5107 33.1966 32.7314 33.4082C33.5941 31.6178 34.3753 29.8356 35.0752 28.0615C35.7751 26.2874 36.3854 24.5378 36.9062 22.8125C37.6875 20.1758 38.249 17.889 38.5908 15.9521C38.9326 14.0153 39.1035 12.3389 39.1035 10.9229C39.1035 9.71842 39.0059 8.6849 38.8105 7.82227C38.6152 6.94336 38.363 6.2028 38.0537 5.60059C37.7445 4.9821 37.3864 4.48568 36.9795 4.11133C36.5726 3.7207 36.1576 3.42773 35.7344 3.23242C35.3275 3.02083 34.9206 2.88249 34.5137 2.81738C34.123 2.736 33.7731 2.69531 33.4639 2.69531C32.1618 2.69531 30.998 3.00456 29.9727 3.62305C28.9473 4.24154 28.0765 5.1123 27.3604 6.23535C26.6605 7.3584 26.1234 8.71745 25.749 10.3125C25.3747 11.8913 25.1875 13.6491 25.1875 15.5859C25.1875 17.0996 25.3177 18.4993 25.5781 19.7852C25.8385 21.071 26.1641 22.2428 26.5547 23.3008C26.9453 24.3587 27.3685 25.2946 27.8242 26.1084C28.2962 26.9222 28.7275 27.6058 29.1182 28.1592C29.5251 28.7126 29.8587 29.1357 30.1191 29.4287C30.3796 29.7217 30.5179 29.8682 30.5342 29.8682L29.7773 30.6494C28.7357 29.7542 27.7591 28.7614 26.8477 27.6709C25.9362 26.5804 25.1468 25.4085 24.4795 24.1553C23.8122 22.902 23.2832 21.5755 22.8926 20.1758C22.502 18.7598 22.3066 17.2786 22.3066 15.7324C22.3066 13.9746 22.5589 12.2412 23.0635 10.5322C23.568 8.82324 24.3005 7.29329 25.2607 5.94238C26.221 4.5752 27.401 3.47656 28.8008 2.64648C30.2005 1.81641 31.7956 1.40137 33.5859 1.40137C33.9928 1.40137 34.4648 1.44206 35.002 1.52344C35.5391 1.60482 36.0924 1.77572 36.6621 2.03613C37.2318 2.28027 37.7933 2.63021 38.3467 3.08594C38.9163 3.54167 39.4128 4.15202 39.8359 4.91699C40.2754 5.66569 40.6253 6.59342 40.8857 7.7002C41.1624 8.79069 41.3008 10.1009 41.3008 11.6309C41.3008 12.3307 41.2682 13.0794 41.2031 13.877C41.138 14.6582 41.0404 15.5046 40.9102 16.416C40.4544 19.4434 39.7708 22.4219 38.8594 25.3516C37.9479 28.265 36.833 31.1377 35.5146 33.9697C36.1982 34.1162 36.8656 34.2708 37.5166 34.4336C38.1676 34.5964 38.8105 34.7673 39.4453 34.9463L39.0791 36.0938ZM9.58691 57.4072C10.8076 57.4723 12.0771 57.2363 13.3955 56.6992C14.7139 56.1621 16.0404 55.3809 17.375 54.3555C18.7096 53.3464 20.0361 52.1257 21.3545 50.6934C22.6891 49.2611 23.9831 47.6904 25.2363 45.9814C26.5059 44.2725 27.7184 42.4577 28.874 40.5371C30.0459 38.6165 31.1364 36.6471 32.1455 34.6289C31.3154 34.515 30.4854 34.4255 29.6553 34.3604C28.8415 34.2952 28.0033 34.2627 27.1406 34.2627C24.6016 34.2627 22.2497 34.5475 20.085 35.1172C17.9365 35.6868 15.9753 36.4437 14.2012 37.3877C12.4434 38.3317 10.889 39.4141 9.53809 40.6348C8.18717 41.8555 7.05599 43.1087 6.14453 44.3945C5.23307 45.6966 4.54134 46.9824 4.06934 48.252C3.59733 49.5378 3.36133 50.7096 3.36133 51.7676C3.36133 52.5977 3.50781 53.3545 3.80078 54.0381C4.07747 54.738 4.48438 55.332 5.02148 55.8203C5.54232 56.3249 6.19336 56.7155 6.97461 56.9922C7.73958 57.2689 8.61035 57.4072 9.58691 57.4072ZM42.3018 38.2666C42.8226 38.6735 43.5143 38.877 44.377 38.877C45.3047 38.877 46.1755 38.7305 46.9893 38.4375C47.8193 38.1445 48.5924 37.762 49.3086 37.29C50.0247 36.8018 50.6839 36.2646 51.2861 35.6787C51.8883 35.0928 52.4255 34.5068 52.8975 33.9209C53.3857 33.3187 53.8089 32.7572 54.167 32.2363C54.5413 31.6992 54.8424 31.2516 55.0703 30.8936H56.4375C56.2096 31.2842 55.8923 31.7887 55.4854 32.4072C55.0947 33.0094 54.6227 33.6523 54.0693 34.3359C53.5322 35.0195 52.9219 35.7113 52.2383 36.4111C51.5547 37.0947 50.7979 37.7132 49.9678 38.2666C49.154 38.82 48.2832 39.2757 47.3555 39.6338C46.4277 39.9756 45.443 40.1465 44.4014 40.1465C43.9456 40.1465 43.498 40.0977 43.0586 40C42.6354 39.8861 42.2204 39.7152 41.8135 39.4873C41.2764 40.8057 40.7555 42.0996 40.251 43.3691C39.7301 44.6387 39.2419 45.8431 38.7861 46.9824C38.3141 48.1217 37.8828 49.1715 37.4922 50.1318C37.1016 51.0921 36.7598 51.9222 36.4668 52.6221C36.1738 53.3382 35.946 53.8997 35.7832 54.3066C35.6204 54.7298 35.5309 54.9495 35.5146 54.9658L32.9512 53.6963C33.7812 51.7432 34.5299 49.9528 35.1973 48.3252C35.8483 46.6976 36.4587 45.1758 37.0283 43.7598C37.5817 42.3438 38.1107 41.0173 38.6152 39.7803C39.1035 38.527 39.5999 37.3145 40.1045 36.1426C39.8441 35.7682 39.6569 35.402 39.543 35.0439C39.4128 34.6859 39.3314 34.3929 39.2988 34.165C39.2663 33.7907 39.3721 33.4814 39.6162 33.2373C39.8441 32.9769 40.1452 32.8467 40.5195 32.8467C40.8288 32.8467 41.1136 32.9525 41.374 33.1641C41.8623 31.9922 42.2936 30.9668 42.668 30.0879C43.0586 29.1927 43.3841 28.444 43.6445 27.8418C43.9375 27.1419 44.1979 26.5316 44.4258 26.0107C45.8418 22.6742 47.152 19.7933 48.3564 17.3682C49.5771 14.9268 50.7002 12.8597 51.7256 11.167C52.751 9.45801 53.6868 8.08268 54.5332 7.04102C55.3796 5.98307 56.1445 5.16113 56.8281 4.5752C57.528 3.98926 58.1546 3.59863 58.708 3.40332C59.2614 3.19173 59.7578 3.08594 60.1973 3.08594C60.9134 3.08594 61.5156 3.2487 62.0039 3.57422C62.5085 3.88346 62.7933 4.42057 62.8584 5.18555C62.9235 5.93424 62.7852 6.87826 62.4434 8.01758C62.1178 9.1569 61.6621 10.3695 61.0762 11.6553C60.5065 12.9248 59.8392 14.2106 59.0742 15.5127C58.3092 16.8148 57.528 18.0111 56.7305 19.1016C55.2168 21.1523 53.8415 22.8532 52.6045 24.2041C51.3838 25.555 50.3096 26.6455 49.3818 27.4756C48.4541 28.3057 47.681 28.9242 47.0625 29.3311C46.444 29.7217 45.9883 29.9902 45.6953 30.1367L42.3018 38.2666ZM61.3447 5.55176C61.3285 5.27507 61.2633 5.03906 61.1494 4.84375C61.0518 4.63216 60.8402 4.52637 60.5146 4.52637C60.3193 4.52637 60.0671 4.5752 59.7578 4.67285C59.4486 4.75423 59.0824 4.94141 58.6592 5.23438C58.2523 5.52734 57.7884 5.95866 57.2676 6.52832C56.7467 7.09798 56.1608 7.86296 55.5098 8.82324C54.875 9.78353 54.1751 10.9717 53.4102 12.3877C52.6615 13.8037 51.8558 15.5127 50.9932 17.5146C50.4235 18.7842 49.7643 20.3304 49.0156 22.1533C48.2669 23.96 47.445 25.9212 46.5498 28.0371C47.3148 27.5 48.1123 26.8327 48.9424 26.0352C49.7887 25.2214 50.6351 24.3343 51.4814 23.374C52.3441 22.3975 53.1904 21.3639 54.0205 20.2734C54.8506 19.1829 55.64 18.0762 56.3887 16.9531C57.1374 15.8301 57.821 14.7152 58.4395 13.6084C59.0742 12.5016 59.6113 11.4518 60.0508 10.459C60.5065 9.44987 60.8483 8.53027 61.0762 7.7002C61.304 6.85384 61.3936 6.1377 61.3447 5.55176Z" fill="#D89908"/>
<path d="M39.0791 36.0938L38.8257 37.0611L39.7434 37.3015L40.0318 36.3978L39.0791 36.0938ZM37.0283 35.5811L36.7692 36.5469L36.7829 36.5506L36.7967 36.5539L37.0283 35.5811ZM34.9775 35.0928L35.1824 34.114L34.4218 33.9548L34.0797 34.6525L34.9775 35.0928ZM29.3867 44.8828L30.2205 45.4349L30.2214 45.4335L29.3867 44.8828ZM26.7012 48.4229L25.9426 47.7712L25.9374 47.7774L26.7012 48.4229ZM23.5762 51.6699L22.9024 50.931L22.8967 50.9361L22.8911 50.9414L23.5762 51.6699ZM20.1582 54.4775L19.578 53.6631L19.5717 53.6676L19.5654 53.6722L20.1582 54.4775ZM16.5938 56.6992L16.1369 55.8097L16.1297 55.8134L16.1225 55.8172L16.5938 56.6992ZM13.0293 58.1641L12.7528 57.203L12.7493 57.2041L13.0293 58.1641ZM6.6084 58.1396L6.94281 57.1972L6.93602 57.1948L6.92921 57.1925L6.6084 58.1396ZM3.89844 56.5771L4.55806 55.8255L4.55048 55.819L3.89844 56.5771ZM1.9209 53.9404L2.82352 53.5099L2.82088 53.5045L1.9209 53.9404ZM1.43262 47.9346L2.40926 48.1494L2.41132 48.1401L2.4132 48.1307L1.43262 47.9346ZM3.77637 42.7588L2.95361 42.1903L2.94889 42.1973L3.77637 42.7588ZM6.04688 40L6.7725 40.6881L6.77258 40.688L6.04688 40ZM10.0508 36.7529L10.5749 37.6046L10.5791 37.602L10.0508 36.7529ZM14.7383 34.5068L15.0711 35.4499L15.0793 35.4469L14.7383 34.5068ZM19.9385 33.1885L20.0899 34.177L20.0985 34.1756L19.9385 33.1885ZM29.0693 32.9199L28.9752 33.9155L28.9764 33.9156L29.0693 32.9199ZM32.7314 33.4082L32.5607 34.3935L33.3046 34.5225L33.6323 33.8423L32.7314 33.4082ZM35.0752 28.0615L34.145 27.6946L35.0752 28.0615ZM36.9062 22.8125L37.8636 23.1015L37.865 23.0966L36.9062 22.8125ZM38.5908 15.9521L37.606 15.7784L38.5908 15.9521ZM38.8105 7.82227L37.8344 8.0392L37.8352 8.04309L38.8105 7.82227ZM38.0537 5.60059L37.1592 6.04783L37.1641 6.05739L38.0537 5.60059ZM36.9795 4.11133L36.287 4.83272L36.2946 4.84007L36.3024 4.84726L36.9795 4.11133ZM35.7344 3.23242L35.273 4.11964L35.2939 4.13051L35.3153 4.14038L35.7344 3.23242ZM34.5137 2.81738L34.3097 3.79636L34.3326 3.80113L34.3557 3.80482L34.5137 2.81738ZM27.3604 6.23535L26.5171 5.69766L26.5117 5.70646L27.3604 6.23535ZM25.749 10.3125L26.722 10.5432L26.7226 10.541L25.749 10.3125ZM26.5547 23.3008L25.6166 23.6472L26.5547 23.3008ZM27.8242 26.1084L26.9517 26.597L26.9554 26.6036L26.9592 26.6101L27.8242 26.1084ZM29.1182 28.1592L28.3012 28.7359L28.3068 28.7438L28.3125 28.7516L29.1182 28.1592ZM30.5342 29.8682L31.2524 30.564L32.8952 28.8682H30.5342V29.8682ZM29.7773 30.6494L29.1256 31.4078L29.8401 32.0219L30.4956 31.3452L29.7773 30.6494ZM26.8477 27.6709L26.0804 28.3122L26.8477 27.6709ZM24.4795 24.1553L23.5968 24.6253L24.4795 24.1553ZM22.8926 20.1758L21.9286 20.4417L21.9294 20.4446L22.8926 20.1758ZM23.0635 10.5322L24.0226 10.8154L23.0635 10.5322ZM25.2607 5.94238L26.0758 6.52177L26.0791 6.51715L25.2607 5.94238ZM36.6621 2.03613L36.2463 2.94561L36.2572 2.95057L36.2682 2.95528L36.6621 2.03613ZM38.3467 3.08594L37.711 3.85787L37.7164 3.86238L37.722 3.86681L38.3467 3.08594ZM39.8359 4.91699L38.9609 5.40105L38.9671 5.4122L38.9735 5.42319L39.8359 4.91699ZM40.8857 7.7002L39.9123 7.92923L39.9143 7.9377L39.9165 7.94613L40.8857 7.7002ZM41.2031 13.877L42.1997 13.96L42.1998 13.9583L41.2031 13.877ZM40.9102 16.416L41.899 16.5649L41.9001 16.5574L40.9102 16.416ZM38.8594 25.3516L39.8138 25.6501L39.8142 25.6486L38.8594 25.3516ZM35.5146 33.9697L34.6081 33.5477L34.0788 34.6847L35.3051 34.9475L35.5146 33.9697ZM39.4453 34.9463L40.398 35.2503L40.7125 34.2647L39.7168 33.9838L39.4453 34.9463ZM9.58691 57.4072L9.64017 56.4086L9.61356 56.4072H9.58691V57.4072ZM17.375 54.3555L16.7719 53.5578L16.7658 53.5625L17.375 54.3555ZM21.3545 50.6934L20.6229 50.0116L20.6187 50.0161L21.3545 50.6934ZM25.2363 45.9814L24.4336 45.3851L24.4299 45.3901L25.2363 45.9814ZM28.874 40.5371L28.0204 40.0162L28.0172 40.0215L28.874 40.5371ZM32.1455 34.6289L33.0399 35.0761L33.664 33.828L32.2815 33.6382L32.1455 34.6289ZM29.6553 34.3604L29.5755 35.3572L29.5771 35.3573L29.6553 34.3604ZM20.085 35.1172L19.8305 34.1501L19.8287 34.1506L20.085 35.1172ZM14.2012 37.3877L13.7314 36.5049L13.728 36.5067L14.2012 37.3877ZM9.53809 40.6348L8.86764 39.8928L9.53809 40.6348ZM6.14453 44.3945L5.3287 43.8162L5.3253 43.8211L6.14453 44.3945ZM4.06934 48.252L3.13201 47.9035L3.13059 47.9073L4.06934 48.252ZM3.80078 54.0381L4.73074 53.6704L4.72552 53.6572L4.71993 53.6442L3.80078 54.0381ZM5.02148 55.8203L5.71728 55.1021L5.70589 55.091L5.69416 55.0804L5.02148 55.8203ZM6.97461 56.9922L7.31475 56.0518L7.30846 56.0496L6.97461 56.9922ZM39.3325 35.1264C38.6417 34.9455 37.9508 34.7727 37.2599 34.6082L36.7967 36.5539C37.473 36.7149 38.1493 36.884 38.8257 37.0611L39.3325 35.1264ZM37.2874 34.6152C36.6016 34.4312 35.8998 34.2641 35.1824 34.114L34.7727 36.0716C35.455 36.2144 36.1204 36.3728 36.7692 36.5469L37.2874 34.6152ZM34.0797 34.6525C33.2587 36.3267 32.3895 37.9685 31.472 39.578L33.2096 40.5684C34.1477 38.9227 35.0363 37.2443 35.8754 35.5331L34.0797 34.6525ZM31.472 39.578C30.5552 41.1866 29.5818 42.7713 28.552 44.3321L30.2214 45.4335C31.2749 43.8368 32.271 42.2151 33.2096 40.5684L31.472 39.578ZM28.5529 44.3307C27.7796 45.4986 26.9098 46.6455 25.9427 47.7712L27.4597 49.0745C28.4782 47.889 29.3988 46.6759 30.2205 45.4349L28.5529 44.3307ZM25.9374 47.7774C24.9885 48.9002 23.9769 49.9513 22.9024 50.931L24.2499 52.4089C25.389 51.3703 26.4607 50.2567 27.465 49.0683L25.9374 47.7774ZM22.8911 50.9414C21.8328 51.9366 20.7284 52.8436 19.578 53.6631L20.7384 55.292C21.9643 54.4187 23.1386 53.454 24.2612 52.3984L22.8911 50.9414ZM19.5654 53.6722C18.4334 54.5055 17.2905 55.2173 16.1369 55.8097L17.0506 57.5888C18.3059 56.9442 19.5393 56.1748 20.751 55.2829L19.5654 53.6722ZM16.1225 55.8172C14.9909 56.4218 13.8678 56.8823 12.7528 57.203L13.3058 59.1251C14.5671 58.7622 15.8203 58.2462 17.065 57.5812L16.1225 55.8172ZM12.7493 57.2041C11.6591 57.522 10.6142 57.6768 9.61133 57.6768V59.6768C10.822 59.6768 12.0557 59.4897 13.3093 59.1241L12.7493 57.2041ZM9.61133 57.6768C8.74105 57.6768 7.85299 57.5202 6.94281 57.1972L6.27399 59.0821C7.38203 59.4753 8.49592 59.6768 9.61133 59.6768V57.6768ZM6.92921 57.1925C6.04426 56.8928 5.25618 56.4382 4.55803 55.8255L3.23885 57.3288C4.13575 58.1158 5.15431 58.7029 6.28759 59.0868L6.92921 57.1925ZM4.55048 55.819C3.85143 55.2178 3.27378 54.4541 2.8235 53.51L1.01829 54.3709C1.57713 55.5427 2.31784 56.5368 3.2464 57.3353L4.55048 55.819ZM2.82088 53.5045C2.3952 52.6257 2.16406 51.552 2.16406 50.2539H0.164062C0.164062 51.7878 0.437482 53.1718 1.02092 54.3764L2.82088 53.5045ZM2.16406 50.2539C2.16406 49.6028 2.24367 48.9021 2.40926 48.1494L0.455973 47.7197C0.263494 48.5946 0.164062 49.4401 0.164062 50.2539H2.16406ZM2.4132 48.1307C2.55913 47.401 2.81007 46.6353 3.17365 45.8324L1.35174 45.0074C0.934066 45.9298 0.631623 46.8405 0.452037 47.7385L2.4132 48.1307ZM3.17365 45.8324C3.53731 45.0293 4.01234 44.192 4.60384 43.3203L2.94889 42.1973C2.30342 43.1485 1.76933 44.0852 1.35174 45.0074L3.17365 45.8324ZM4.5991 43.3272C5.18334 42.4816 5.9061 41.6018 6.7725 40.6881L5.32125 39.3119C4.39729 40.2863 3.60637 41.2456 2.95364 42.1904L4.5991 43.3272ZM6.77258 40.688C7.9005 39.4983 9.16726 38.4708 10.5749 37.6046L9.52668 35.9013C7.97206 36.858 6.56955 37.9952 5.32117 39.312L6.77258 40.688ZM10.5791 37.602C11.9811 36.7296 13.4779 36.0121 15.0711 35.4498L14.4055 33.5638C12.6783 34.1734 11.0501 34.9533 9.52248 35.9039L10.5791 37.602ZM15.0793 35.4469C16.6759 34.8677 18.3456 34.4441 20.0899 34.177L19.7871 32.2C17.9181 32.4862 16.121 32.9415 14.3973 33.5668L15.0793 35.4469ZM20.0985 34.1756C21.8515 33.8913 23.629 33.749 25.4316 33.749V31.749C23.5233 31.749 21.6387 31.8997 19.7784 32.2014L20.0985 34.1756ZM25.4316 33.749C26.6212 33.749 27.8023 33.8045 28.9752 33.9155L29.1635 31.9244C27.9275 31.8074 26.6835 31.749 25.4316 31.749V33.749ZM28.9764 33.9156C30.1708 34.0271 31.3655 34.1863 32.5607 34.3935L32.9022 32.4229C31.656 32.2069 30.4093 32.0406 29.1623 31.9242L28.9764 33.9156ZM33.6323 33.8423C34.5051 32.0308 35.2962 30.2262 36.0054 28.4285L34.145 27.6946C33.4544 29.445 32.683 31.2049 31.8306 32.9741L33.6323 33.8423ZM36.0054 28.4285C36.7148 26.6303 37.3343 24.8546 37.8636 23.1015L35.9489 22.5235C35.4365 24.2209 34.8353 25.9446 34.145 27.6946L36.0054 28.4285ZM37.865 23.0966C38.6532 20.4367 39.2252 18.1114 39.5756 16.1259L37.606 15.7784C37.2728 17.6666 36.7218 19.9149 35.9475 22.5284L37.865 23.0966ZM39.5756 16.1259C39.9239 14.152 40.1035 12.4147 40.1035 10.9229H38.1035C38.1035 12.2631 37.9413 13.8786 37.606 15.7784L39.5756 16.1259ZM40.1035 10.9229C40.1035 9.66886 40.0023 8.55722 39.7859 7.60144L37.8352 8.04309C38.0095 8.81257 38.1035 9.76799 38.1035 10.9229H40.1035ZM39.7867 7.60534C39.5786 6.66868 39.3019 5.84216 38.9433 5.14378L37.1641 6.05739C37.424 6.56344 37.6519 7.21804 37.8344 8.0392L39.7867 7.60534ZM38.9481 5.15337C38.5977 4.45243 38.1721 3.84972 37.6565 3.3754L36.3024 4.84726C36.6007 5.12164 36.8913 5.51177 37.1593 6.0478L38.9481 5.15337ZM37.672 3.38994C37.2013 2.93802 36.6962 2.57495 36.1534 2.32446L35.3153 4.14038C35.6189 4.28052 35.9439 4.50339 36.287 4.83272L37.672 3.38994ZM36.1957 2.34521C35.7044 2.0897 35.1956 1.91378 34.6717 1.82994L34.3557 3.80482C34.6455 3.8512 34.9506 3.95197 35.273 4.11964L36.1957 2.34521ZM34.7176 1.8384C34.2781 1.74684 33.858 1.69531 33.4639 1.69531V3.69531C33.6882 3.69531 33.968 3.72516 34.3097 3.79636L34.7176 1.8384ZM33.4639 1.69531C31.9962 1.69531 30.6509 2.0461 29.4562 2.76676L30.4891 4.47934C31.3452 3.96302 32.3274 3.69531 33.4639 3.69531V1.69531ZM29.4562 2.76676C28.2846 3.47344 27.3068 4.45944 26.5172 5.69769L28.2035 6.77302C28.8462 5.76517 29.61 5.00964 30.4891 4.47934L29.4562 2.76676ZM26.5117 5.70646C25.7422 6.9412 25.1691 8.40698 24.7755 10.084L26.7226 10.541C27.0777 9.02791 27.5788 7.7756 28.209 6.76424L26.5117 5.70646ZM24.776 10.0818C24.3807 11.749 24.1875 13.5859 24.1875 15.5859H26.1875C26.1875 13.7123 26.3687 12.0335 26.722 10.5432L24.776 10.0818ZM24.1875 15.5859C24.1875 17.1563 24.3225 18.6234 24.598 19.9837L26.5582 19.5867C26.3129 18.3753 26.1875 17.0429 26.1875 15.5859H24.1875ZM24.598 19.9837C24.867 21.3118 25.2056 22.534 25.6166 23.6472L27.4928 22.9544C27.1225 21.9516 26.8101 20.8301 26.5582 19.5867L24.598 19.9837ZM25.6166 23.6472C26.0217 24.7444 26.4658 25.7293 26.9517 26.597L28.6967 25.6198C28.2712 24.8599 27.8689 23.9731 27.4928 22.9544L25.6166 23.6472ZM26.9592 26.6101C27.4408 27.4406 27.8883 28.1509 28.3012 28.7359L29.9351 27.5825C29.5668 27.0606 29.1516 26.4039 28.6892 25.6067L26.9592 26.6101ZM28.3125 28.7516C28.7263 29.3144 29.0811 29.7661 29.3717 30.0931L30.8665 28.7643C30.6363 28.5054 30.3238 28.1108 29.9238 27.5668L28.3125 28.7516ZM29.3717 30.0931C29.5036 30.2415 29.6114 30.3604 29.6912 30.4449C29.7294 30.4854 29.7715 30.5289 29.8113 30.5667C29.829 30.5834 29.8634 30.6154 29.906 30.6488C29.9257 30.6642 29.969 30.6972 30.0276 30.7312C30.0362 30.7363 30.2422 30.8682 30.5342 30.8682V28.8682C30.6254 28.8682 30.7012 28.8807 30.7555 28.893C30.8107 28.9056 30.8563 28.921 30.8899 28.9339C30.9552 28.9589 31.0043 28.9857 31.0318 29.0017C31.0865 29.0334 31.1248 29.063 31.1387 29.0738C31.1564 29.0877 31.1691 29.0988 31.175 29.104C31.1815 29.1097 31.1857 29.1136 31.1868 29.1147C31.188 29.1158 31.1762 29.1044 31.1452 29.0717C31.0867 29.0097 30.9951 28.9089 30.8665 28.7643L29.3717 30.0931ZM29.8159 29.1724L29.0591 29.9536L30.4956 31.3452L31.2524 30.564L29.8159 29.1724ZM30.4291 29.891C29.4305 29.0328 28.4924 28.0794 27.6149 27.0296L26.0804 28.3122C27.0258 29.4434 28.0408 30.4756 29.1256 31.4078L30.4291 29.891ZM27.6149 27.0296C26.7477 25.992 25.997 24.8775 25.3622 23.6853L23.5968 24.6253C24.2966 25.9395 25.1247 27.1688 26.0804 28.3122L27.6149 27.0296ZM25.3622 23.6853C24.7297 22.4975 24.2274 21.2386 23.8558 19.907L21.9294 20.4446C22.339 21.9125 22.8947 23.3066 23.5968 24.6253L25.3622 23.6853ZM23.8566 19.9099C23.4911 18.5849 23.3066 17.1935 23.3066 15.7324H21.3066C21.3066 17.3638 21.5128 18.9346 21.9286 20.4417L23.8566 19.9099ZM23.3066 15.7324C23.3066 14.0718 23.5448 12.4337 24.0226 10.8154L22.1044 10.2491C21.5731 12.0487 21.3066 13.8774 21.3066 15.7324H23.3066ZM24.0226 10.8154C24.4982 9.20444 25.1842 7.77603 26.0758 6.52176L24.4457 5.363C23.4167 6.81055 22.6379 8.44204 22.1044 10.2491L24.0226 10.8154ZM26.0791 6.51715C26.9602 5.26266 28.0362 4.26251 29.3109 3.50661L28.2907 1.78636C26.7659 2.69061 25.4819 3.88773 24.4424 5.36761L26.0791 6.51715ZM29.3109 3.50661C30.541 2.77709 31.9566 2.40137 33.5859 2.40137V0.401367C31.6346 0.401367 29.86 0.855718 28.2907 1.78636L29.3109 3.50661ZM33.5859 2.40137C33.9293 2.40137 34.3493 2.43596 34.8521 2.51215L35.1518 0.534722C34.5804 0.44815 34.0564 0.401367 33.5859 0.401367V2.40137ZM34.8521 2.51215C35.2846 2.57767 35.7486 2.71806 36.2463 2.94561L37.0779 1.12666C36.4363 0.833367 35.7936 0.631964 35.1518 0.534722L34.8521 2.51215ZM36.2682 2.95528C36.7383 3.15675 37.2196 3.45321 37.711 3.85787L38.9824 2.31401C38.367 1.80721 37.7253 1.4038 37.056 1.11699L36.2682 2.95528ZM37.722 3.86681C38.1715 4.22643 38.5887 4.72823 38.9609 5.40105L40.711 4.43293C40.2368 3.57581 39.6612 2.8569 38.9714 2.30507L37.722 3.86681ZM38.9735 5.42319C39.3494 6.06362 39.6682 6.89154 39.9123 7.92923L41.8592 7.47116C41.5825 6.29531 41.2014 5.26776 40.6984 4.41079L38.9735 5.42319ZM39.9165 7.94613C40.1669 8.93333 40.3008 10.1563 40.3008 11.6309H42.3008C42.3008 10.0455 42.1579 8.64805 41.855 7.45426L39.9165 7.94613ZM40.3008 11.6309C40.3008 12.3001 40.2696 13.0214 40.2064 13.7956L42.1998 13.9583C42.2668 13.1375 42.3008 12.3614 42.3008 11.6309H40.3008ZM40.2066 13.7939C40.1434 14.5526 40.0481 15.3793 39.9202 16.2746L41.9001 16.5574C42.0326 15.6298 42.1327 14.7638 42.1997 13.96L40.2066 13.7939ZM39.9213 16.2672C39.4731 19.2442 38.8009 22.1732 37.9045 25.0545L39.8142 25.6486C40.7407 22.6706 41.4357 19.6425 41.899 16.5649L39.9213 16.2672ZM37.905 25.053C37.007 27.9233 35.9082 30.7548 34.6081 33.5477L36.4212 34.3918C37.7578 31.5206 38.8888 28.6067 39.8138 25.6501L37.905 25.053ZM35.3051 34.9475C35.9781 35.0917 36.6344 35.2438 37.2741 35.4037L37.7591 33.4635C37.0967 33.2978 36.4184 33.1407 35.7242 32.9919L35.3051 34.9475ZM37.2741 35.4037C37.9156 35.5641 38.5489 35.7325 39.1739 35.9087L39.7168 33.9838C39.0722 33.802 38.4197 33.6286 37.7591 33.4635L37.2741 35.4037ZM38.4927 34.6422L38.1264 35.7897L40.0318 36.3978L40.398 35.2503L38.4927 34.6422ZM9.53366 58.4058C10.9238 58.4799 12.3403 58.2089 13.7728 57.6253L13.0182 55.7731C11.8139 56.2638 10.6915 56.4647 9.64017 56.4086L9.53366 58.4058ZM13.7728 57.6253C15.1875 57.0489 16.5911 56.2188 17.9842 55.1485L16.7658 53.5625C15.4896 54.5429 14.2402 55.2753 13.0182 55.7731L13.7728 57.6253ZM17.9781 55.1531C19.3675 54.1026 20.7378 52.84 22.0903 51.3706L20.6187 50.0161C19.3345 51.4113 18.0518 52.5901 16.7719 53.5578L17.9781 55.1531ZM22.0861 51.3751C23.4495 49.9119 24.7682 48.3108 26.0427 46.5728L24.4299 45.3901C23.1979 47.0701 21.9288 48.6102 20.6229 50.0116L22.0861 51.3751ZM26.0391 46.5778C27.3289 44.8414 28.5594 42.9996 29.7309 41.0527L28.0172 40.0215C26.8774 41.9158 25.6828 43.7035 24.4336 45.3851L26.0391 46.5778ZM29.7277 41.058C30.9142 39.1134 32.0183 37.1194 33.0399 35.0761L31.2511 34.1817C30.2545 36.1749 29.1776 38.1197 28.0204 40.0162L29.7277 41.058ZM32.2815 33.6382C31.4323 33.5216 30.583 33.43 29.7335 33.3634L29.5771 35.3573C30.3877 35.4209 31.1985 35.5083 32.0095 35.6196L32.2815 33.6382ZM29.735 33.3635C28.8932 33.2962 28.0284 33.2627 27.1406 33.2627V35.2627C27.9781 35.2627 28.7897 35.2943 29.5755 35.3572L29.735 33.3635ZM27.1406 33.2627C24.527 33.2627 22.0885 33.5559 19.8305 34.1501L20.3395 36.0843C22.4109 35.5392 24.6762 35.2627 27.1406 35.2627V33.2627ZM19.8287 34.1506C17.6138 34.7379 15.5799 35.5213 13.7314 36.5049L14.6709 38.2705C16.3706 37.3661 18.2592 36.6358 20.3413 36.0838L19.8287 34.1506ZM13.728 36.5067C11.9058 37.4853 10.2839 38.6131 8.86764 39.8928L10.2085 41.3767C11.4941 40.2151 12.9809 39.1781 14.6743 38.2687L13.728 36.5067ZM8.86764 39.8928C7.4706 41.1552 6.28842 42.4623 5.32871 43.8162L6.96035 44.9728C7.82356 43.7551 8.90374 42.5557 10.2085 41.3767L8.86764 39.8928ZM5.3253 43.8211C4.37327 45.1811 3.63826 46.5419 3.13202 47.9035L5.00665 48.6004C5.44442 47.423 6.09288 46.2121 6.96376 44.968L5.3253 43.8211ZM3.13059 47.9073C2.6294 49.2727 2.36133 50.5631 2.36133 51.7676H4.36133C4.36133 50.8561 4.56526 49.8029 5.00808 48.5966L3.13059 47.9073ZM2.36133 51.7676C2.36133 52.7173 2.52945 53.6102 2.88164 54.432L4.71993 53.6442C4.48618 53.0988 4.36133 52.478 4.36133 51.7676H2.36133ZM2.87082 54.4057C3.20157 55.2424 3.69441 55.9653 4.34881 56.5603L5.69416 55.0804C5.27434 54.6987 4.95338 54.2336 4.73074 53.6704L2.87082 54.4057ZM4.32569 56.5386C4.96343 57.1564 5.74347 57.617 6.64076 57.9348L7.30846 56.0496C6.64325 55.814 6.1212 55.4934 5.71728 55.1021L4.32569 56.5386ZM6.63447 57.9326C7.52791 58.2557 8.51697 58.4072 9.58691 58.4072V56.4072C8.70373 56.4072 7.95125 56.282 7.31475 56.0518L6.63447 57.9326ZM42.3018 38.2666L41.3789 37.8814L41.0852 38.5851L41.6861 39.0546L42.3018 38.2666ZM46.9893 38.4375L46.6564 37.4945L46.6505 37.4966L46.9893 38.4375ZM49.3086 37.29L49.8589 38.125L49.8655 38.1207L49.8719 38.1163L49.3086 37.29ZM52.8975 33.9209L52.1207 33.2911L52.1187 33.2936L52.8975 33.9209ZM54.167 32.2363L53.3466 31.6645L53.343 31.6698L54.167 32.2363ZM55.0703 30.8936V29.8936H54.5214L54.2267 30.3567L55.0703 30.8936ZM56.4375 30.8936L57.3013 31.3974L58.1785 29.8936H56.4375V30.8936ZM55.4854 32.4072L54.6499 31.8576L54.6464 31.863L55.4854 32.4072ZM54.0693 34.3359L53.2921 33.7067L53.2875 33.7124L53.283 33.7181L54.0693 34.3359ZM52.2383 36.4111L52.9454 37.1183L52.9537 37.1099L52.2383 36.4111ZM49.9678 38.2666L49.413 37.4345L49.4055 37.4397L49.9678 38.2666ZM47.3555 39.6338L47.7012 40.5721L47.7084 40.5695L47.7155 40.5667L47.3555 39.6338ZM43.0586 40L42.7986 40.9656L42.82 40.9714L42.8417 40.9762L43.0586 40ZM41.8135 39.4873L42.3021 38.6148L41.3145 38.0617L40.8874 39.11L41.8135 39.4873ZM40.251 43.3691L41.1762 43.7487L41.1803 43.7385L40.251 43.3691ZM38.7861 46.9824L39.7101 47.3652L39.7146 47.3538L38.7861 46.9824ZM36.4668 52.6221L35.5443 52.2359L35.5412 52.2434L36.4668 52.6221ZM35.7832 54.3066L34.8546 53.9352L34.8499 53.9477L35.7832 54.3066ZM35.5146 54.9658L35.0709 55.8619L35.7141 56.1805L36.2218 55.6729L35.5146 54.9658ZM32.9512 53.6963L32.0308 53.3051L31.6617 54.1736L32.5074 54.5924L32.9512 53.6963ZM35.1973 48.3252L36.1226 48.7046L36.1257 48.6966L35.1973 48.3252ZM37.0283 43.7598L37.9561 44.133L37.9597 44.1238L37.0283 43.7598ZM38.6152 39.7803L39.5412 40.158L39.5441 40.1507L39.547 40.1433L38.6152 39.7803ZM40.1045 36.1426L41.023 36.538L41.2427 36.0277L40.9254 35.5715L40.1045 36.1426ZM39.543 35.0439L40.4959 34.7407L40.4897 34.7213L40.4828 34.7022L39.543 35.0439ZM39.2988 34.165L38.3026 34.2517L38.305 34.2792L38.3089 34.3065L39.2988 34.165ZM39.6162 33.2373L40.3233 33.9444L40.3469 33.9209L40.3688 33.8958L39.6162 33.2373ZM41.374 33.1641L40.7434 33.9402L41.7823 34.7842L42.2971 33.5487L41.374 33.1641ZM42.668 30.0879L41.7514 29.6879L41.7479 29.696L42.668 30.0879ZM43.6445 27.8418L44.5625 28.2387L44.567 28.2279L43.6445 27.8418ZM44.4258 26.0107L45.342 26.4116L45.3463 26.4014L44.4258 26.0107ZM48.3564 17.3682L47.462 16.9209L47.4608 16.9234L48.3564 17.3682ZM51.7256 11.167L52.5809 11.6851L52.5831 11.6815L51.7256 11.167ZM54.5332 7.04102L55.3093 7.67163L55.3141 7.66571L54.5332 7.04102ZM56.8281 4.5752L56.1861 3.80839L56.1773 3.81594L56.8281 4.5752ZM58.708 3.40332L59.0408 4.34631L59.053 4.342L59.0651 4.33737L58.708 3.40332ZM62.0039 3.57422L61.4492 4.40627L61.4651 4.41685L61.4813 4.42682L62.0039 3.57422ZM62.8584 5.18555L61.862 5.27035L61.8622 5.27218L62.8584 5.18555ZM62.4434 8.01758L61.4855 7.73021L61.4818 7.74286L62.4434 8.01758ZM61.0762 11.6553L60.1662 11.2406L60.1638 11.2459L61.0762 11.6553ZM59.0742 15.5127L58.212 15.0061L59.0742 15.5127ZM56.7305 19.1016L57.5351 19.6954L57.5376 19.6919L56.7305 19.1016ZM52.6045 24.2041L51.867 23.5288L51.8625 23.5337L52.6045 24.2041ZM47.0625 29.3311L47.5965 30.1765L47.6044 30.1716L47.6121 30.1665L47.0625 29.3311ZM45.6953 30.1367L45.2481 29.2423L44.9157 29.4085L44.7725 29.7515L45.6953 30.1367ZM61.3447 5.55176L60.3465 5.61048L60.3472 5.62265L60.3482 5.6348L61.3447 5.55176ZM61.1494 4.84375L60.2415 5.26281L60.2615 5.30627L60.2856 5.34762L61.1494 4.84375ZM59.7578 4.67285L60.0123 5.63993L60.0358 5.63375L60.0589 5.62643L59.7578 4.67285ZM58.6592 5.23438L58.09 4.41218L58.0824 4.41744L58.0749 4.42284L58.6592 5.23438ZM55.5098 8.82324L54.682 8.26205L54.6755 8.27181L55.5098 8.82324ZM53.4102 12.3877L52.5303 11.9124L52.5261 11.9203L53.4102 12.3877ZM50.9932 17.5146L51.9055 17.924L51.9086 17.9172L51.9115 17.9104L50.9932 17.5146ZM49.0156 22.1533L49.9394 22.5362L49.9406 22.5332L49.0156 22.1533ZM46.5498 28.0371L45.6288 27.6475L44.2697 30.8599L47.1244 28.8555L46.5498 28.0371ZM48.9424 26.0352L49.6352 26.7563L49.6355 26.756L48.9424 26.0352ZM51.4814 23.374L50.732 22.712L50.7312 22.7128L51.4814 23.374ZM58.4395 13.6084L57.5719 13.1109L57.5665 13.1206L58.4395 13.6084ZM60.0508 10.459L59.1394 10.0474L59.1364 10.0542L60.0508 10.459ZM61.0762 7.7002L62.0405 7.96492L62.0418 7.96017L61.0762 7.7002ZM41.6861 39.0546C42.43 39.6358 43.3597 39.877 44.377 39.877V37.877C43.669 37.877 43.2152 37.7112 42.9174 37.4786L41.6861 39.0546ZM44.377 39.877C45.4117 39.877 46.3979 39.7132 47.328 39.3784L46.6505 37.4966C45.953 37.7477 45.1976 37.877 44.377 37.877V39.877ZM47.3221 39.3805C48.2267 39.0612 49.0732 38.6429 49.8589 38.125L48.7583 36.4551C48.1117 36.8812 47.4119 37.2279 46.6564 37.4945L47.3221 39.3805ZM49.8719 38.1163C50.6343 37.5965 51.3386 37.0229 51.9835 36.3954L50.5888 34.962C50.0293 35.5064 49.4152 36.0071 48.7453 36.4638L49.8719 38.1163ZM51.9835 36.3954C52.6113 35.7846 53.1762 35.169 53.6762 34.5482L52.1187 33.2936C51.6747 33.8447 51.1654 34.401 50.5888 34.962L51.9835 36.3954ZM53.6742 34.5507C54.1755 33.9324 54.6152 33.3496 54.991 32.8029L53.343 31.6698C53.0027 32.1647 52.596 32.705 52.1207 33.2911L53.6742 34.5507ZM54.9874 32.8081C55.366 32.265 55.6757 31.8048 55.914 31.4304L54.2267 30.3567C54.0092 30.6985 53.7167 31.1335 53.3466 31.6645L54.9874 32.8081ZM55.0703 31.8936H56.4375V29.8936H55.0703V31.8936ZM55.5737 30.3897C55.3587 30.7582 55.0523 31.246 54.6499 31.8576L56.3208 32.9568C56.7322 32.3315 57.0605 31.8101 57.3013 31.3974L55.5737 30.3897ZM54.6464 31.863C54.2785 32.4302 53.8281 33.0446 53.2921 33.7067L54.8466 34.9651C55.4173 34.2601 55.9109 33.5887 56.3243 32.9514L54.6464 31.863ZM53.283 33.7181C52.7706 34.3702 52.1845 35.0351 51.5229 35.7124L52.9537 37.1099C53.6593 36.3874 54.2938 35.6688 54.8557 34.9538L53.283 33.7181ZM51.5312 35.704C50.8956 36.3396 50.1901 36.9165 49.4131 37.4346L50.5225 39.0987C51.4056 38.5099 52.2138 37.8499 52.9454 37.1182L51.5312 35.704ZM49.4055 37.4397C48.6555 37.9497 47.8526 38.37 46.9954 38.7009L47.7155 40.5667C48.7138 40.1814 49.6525 39.6903 50.5301 39.0935L49.4055 37.4397ZM47.0098 38.6954C46.1986 38.9943 45.3314 39.1465 44.4014 39.1465V41.1465C45.5546 41.1465 46.6569 40.9569 47.7012 40.5721L47.0098 38.6954ZM44.4014 39.1465C44.0177 39.1465 43.6429 39.1054 43.2755 39.0238L42.8417 40.9762C43.3532 41.0899 43.8736 41.1465 44.4014 41.1465V39.1465ZM43.3186 39.0344C42.9801 38.9433 42.6415 38.8049 42.3021 38.6148L41.3249 40.3598C41.7992 40.6255 42.2907 40.8289 42.7986 40.9656L43.3186 39.0344ZM40.8874 39.11C40.3492 40.4309 39.8273 41.7275 39.3217 42.9998L41.1803 43.7385C41.6837 42.4717 42.2035 41.1804 42.7396 39.8646L40.8874 39.11ZM39.3258 42.9896C38.804 44.2615 38.3146 45.4687 37.8577 46.611L39.7146 47.3538C40.1691 46.2175 40.6563 45.0158 41.1761 43.7487L39.3258 42.9896ZM37.8623 46.5997C37.3896 47.7406 36.9575 48.7924 36.5659 49.755L38.4185 50.5086C38.8082 49.5507 39.2387 48.5029 39.71 47.3652L37.8623 46.5997ZM36.5659 49.755C36.1761 50.7132 35.8357 51.5401 35.5444 52.2359L37.3892 53.0082C37.6839 52.3043 38.027 51.471 38.4185 50.5086L36.5659 49.755ZM35.5412 52.2434C35.2479 52.9605 35.0189 53.5248 34.8547 53.9352L36.7117 54.678C36.873 54.2747 37.0997 53.716 37.3923 53.0007L35.5412 52.2434ZM34.8499 53.9477C34.7691 54.1576 34.7089 54.311 34.6679 54.4115C34.6469 54.463 34.6342 54.4927 34.6281 54.5064C34.6245 54.5145 34.6275 54.5073 34.6352 54.4922C34.6388 54.4852 34.6491 54.4655 34.6648 54.4398C34.6727 54.4267 34.6862 54.4053 34.7046 54.3798C34.7203 54.3579 34.7551 54.3112 34.8075 54.2587L36.2218 55.6729C36.3123 55.5824 36.3648 55.4933 36.3724 55.481C36.3912 55.4501 36.4052 55.4235 36.4132 55.4081C36.4296 55.3763 36.4435 55.346 36.4531 55.3245C36.4734 55.2792 36.4963 55.2245 36.5201 55.1661C36.5686 55.047 36.6345 54.8789 36.7165 54.6656L34.8499 53.9477ZM35.9584 54.0697L33.395 52.8002L32.5074 54.5924L35.0709 55.8619L35.9584 54.0697ZM33.8715 54.0874C34.7029 52.1312 35.4533 50.3368 36.1225 48.7045L34.272 47.9458C33.6066 49.5688 32.8596 51.3552 32.0308 53.3051L33.8715 54.0874ZM36.1257 48.6966C36.7766 47.0695 37.3867 45.5483 37.9561 44.133L36.1006 43.3865C35.5306 44.8032 34.92 46.3257 34.2688 47.9538L36.1257 48.6966ZM37.9597 44.1238C38.5116 42.7117 39.0387 41.3898 39.5412 40.158L37.6893 39.4026C37.1827 40.6447 36.6519 41.9758 36.0969 43.3958L37.9597 44.1238ZM39.547 40.1433C40.0313 38.9004 40.5233 37.6986 41.023 36.538L39.186 35.7471C38.6766 36.9303 38.1758 38.1537 37.6835 39.4172L39.547 40.1433ZM40.9254 35.5715C40.7104 35.2624 40.5738 34.9856 40.4959 34.7407L38.59 35.3471C38.74 35.8184 38.9778 36.274 39.2836 36.7136L40.9254 35.5715ZM40.4828 34.7022C40.363 34.3727 40.3073 34.1534 40.2888 34.0236L38.3089 34.3065C38.3554 34.6324 38.4626 34.999 38.6032 35.3857L40.4828 34.7022ZM40.2951 34.0784C40.2891 34.0093 40.2984 33.9806 40.2999 33.976C40.301 33.9728 40.3022 33.9703 40.3042 33.9671C40.3064 33.9637 40.3117 33.956 40.3233 33.9444L38.9091 32.5302C38.436 33.0033 38.247 33.6125 38.3026 34.2517L40.2951 34.0784ZM40.3688 33.8958C40.3904 33.8711 40.4031 33.8651 40.4099 33.8622C40.4186 33.8584 40.4497 33.8467 40.5195 33.8467V31.8467C39.8834 31.8467 39.2982 32.0821 38.8636 32.5788L40.3688 33.8958ZM40.5195 33.8467C40.579 33.8467 40.645 33.8602 40.7434 33.9402L42.0046 32.3879C41.5822 32.0447 41.0785 31.8467 40.5195 31.8467V33.8467ZM42.2971 33.5487C42.7847 32.3785 43.2149 31.3556 43.588 30.4798L41.7479 29.696C41.3723 30.578 40.9399 31.6059 40.4509 32.7794L42.2971 33.5487ZM43.5845 30.4878C43.9754 29.5921 44.3014 28.8423 44.5624 28.2387L42.7267 27.4449C42.4669 28.0457 42.1418 28.7933 41.7514 29.6879L43.5845 30.4878ZM44.567 28.2279C44.8585 27.5315 45.1168 26.9262 45.3419 26.4116L43.5096 25.6099C43.2791 26.1369 43.0165 26.7524 42.7221 27.4557L44.567 28.2279ZM45.3463 26.4014C46.757 23.0774 48.0589 20.2155 49.2521 17.813L47.4608 16.9234C46.2452 19.3711 44.9266 22.2709 43.5052 25.6201L45.3463 26.4014ZM49.2509 17.8154C50.4637 15.3898 51.5736 13.3479 52.5809 11.6851L50.8703 10.6489C49.8268 12.3715 48.6906 14.4637 47.462 16.921L49.2509 17.8154ZM52.5831 11.6815C53.5946 9.99563 54.5034 8.66357 55.3093 7.67161L53.7571 6.41042C52.8703 7.5018 51.9074 8.92038 50.8681 10.6525L52.5831 11.6815ZM55.3141 7.66571C56.1388 6.63479 56.8601 5.86486 57.4789 5.33445L56.1773 3.81594C55.429 4.45741 54.6203 5.33136 53.7523 6.41632L55.3141 7.66571ZM57.4701 5.34195C58.1235 4.79491 58.6449 4.48605 59.0408 4.34631L58.3752 2.46033C57.6643 2.71122 56.9325 3.18361 56.1862 3.80844L57.4701 5.34195ZM59.0651 4.33737C59.5417 4.15514 59.9142 4.08594 60.1973 4.08594V2.08594C59.6014 2.08594 58.981 2.22832 58.3509 2.46927L59.0651 4.33737ZM60.1973 4.08594C60.7599 4.08594 61.1583 4.21232 61.4492 4.40627L62.5586 2.74217C61.873 2.28508 61.0669 2.08594 60.1973 2.08594V4.08594ZM61.4813 4.42682C61.6371 4.5223 61.815 4.7186 61.862 5.27035L63.8548 5.10075C63.7715 4.12254 63.3798 3.24462 62.5265 2.72162L61.4813 4.42682ZM61.8622 5.27218C61.9118 5.84314 61.8097 6.64959 61.4855 7.73023L63.4012 8.30493C63.7606 7.10692 63.9352 6.02535 63.8546 5.09892L61.8622 5.27218ZM61.4818 7.74286C61.1723 8.82624 60.7353 9.99176 60.1662 11.2406L61.9861 12.0699C62.5889 10.7472 63.0634 9.48756 63.4049 8.2923L61.4818 7.74286ZM60.1638 11.2459C59.6103 12.4795 58.9601 13.7329 58.212 15.0061L59.9364 16.0192C60.7183 14.6883 61.4027 13.3701 61.9885 12.0647L60.1638 11.2459ZM58.212 15.0061C57.462 16.2827 56.699 17.4507 55.9233 18.5112L57.5376 19.6919C58.357 18.5715 59.1565 17.3469 59.9364 16.0192L58.212 15.0061ZM55.9259 18.5077C54.4257 20.5402 53.073 22.2116 51.867 23.5288L53.342 24.8794C54.6099 23.4947 56.0079 21.7645 57.535 19.6954L55.9259 18.5077ZM51.8625 23.5337C50.6558 24.8691 49.6074 25.9319 48.715 26.7303L50.0486 28.2208C51.0117 27.3591 52.1118 26.2409 53.3465 24.8745L51.8625 23.5337ZM48.715 26.7303C47.8029 27.5464 47.0718 28.1279 46.5129 28.4956L47.6121 30.1665C48.2902 29.7204 49.1053 29.0649 50.0486 28.2208L48.715 26.7303ZM46.5285 28.4856C45.9125 28.8746 45.493 29.1199 45.2481 29.2423L46.1425 31.0311C46.4836 30.8606 46.9755 30.5688 47.5965 30.1765L46.5285 28.4856ZM44.7725 29.7515L41.3789 37.8814L43.2246 38.6518L46.6181 30.5219L44.7725 29.7515ZM62.343 5.49304C62.3195 5.09432 62.2222 4.6982 62.0132 4.33988L60.2856 5.34762C60.3045 5.37993 60.3374 5.45581 60.3465 5.61048L62.343 5.49304ZM62.0574 4.42469C61.7322 3.72004 61.0497 3.52637 60.5146 3.52637V5.52637C60.5774 5.52637 60.5455 5.53774 60.4703 5.50014C60.4299 5.47997 60.3831 5.44846 60.3386 5.40276C60.2939 5.35692 60.2622 5.30767 60.2415 5.26281L62.0574 4.42469ZM60.5146 3.52637C60.172 3.52637 59.8081 3.60831 59.4567 3.71927L60.0589 5.62643C60.3261 5.54208 60.4667 5.52637 60.5146 5.52637V3.52637ZM59.5033 3.70578C59.0341 3.82926 58.5578 4.0883 58.09 4.41218L59.2284 6.05657C59.6069 5.79451 59.8631 5.6792 60.0123 5.63993L59.5033 3.70578ZM58.0749 4.42284C57.5908 4.77137 57.0748 5.25717 56.5295 5.85355L58.0056 7.20309C58.502 6.66014 58.9137 6.28332 59.2435 6.04591L58.0749 4.42284ZM56.5295 5.85355C55.9643 6.47181 55.3482 7.27957 54.6821 8.26208L56.3375 9.3844C56.9734 8.44634 57.5292 7.72416 58.0056 7.20309L56.5295 5.85355ZM54.6755 8.27181C54.0195 9.26431 53.3043 10.4797 52.5303 11.9124L54.29 12.863C55.046 11.4636 55.7305 10.3027 56.344 9.37468L54.6755 8.27181ZM52.5261 11.9203C51.7615 13.3664 50.9445 15.1007 50.0748 17.1189L51.9115 17.9104C52.7671 15.9247 53.5614 14.2411 54.2942 12.8551L52.5261 11.9203ZM50.0808 17.1053C49.5054 18.3876 48.8418 19.9443 48.0906 21.7734L49.9406 22.5332C50.6868 20.7165 51.3416 19.1807 51.9055 17.924L50.0808 17.1053ZM48.0918 21.7705C47.3442 23.5745 46.5232 25.5335 45.6288 27.6475L47.4708 28.4267C48.3668 26.309 49.1897 24.3454 49.9394 22.5362L48.0918 21.7705ZM47.1244 28.8555C47.9395 28.2832 48.7764 27.5814 49.6352 26.7563L48.2496 25.3141C47.4483 26.0839 46.6901 26.7168 45.9752 27.2187L47.1244 28.8555ZM49.6355 26.756C50.5034 25.9215 51.3687 25.0143 52.2317 24.0352L50.7312 22.7128C49.9015 23.6543 49.0741 24.5212 48.2493 25.3143L49.6355 26.756ZM52.2309 24.0361C53.1104 23.0404 53.9722 21.988 54.8162 20.8791L53.2248 19.6678C52.4087 20.7399 51.5777 21.7546 50.732 22.712L52.2309 24.0361ZM54.8162 20.8791C55.6587 19.7723 56.4603 18.6485 57.2207 17.5078L55.5566 16.3984C54.8197 17.5038 54.0424 18.5936 53.2248 19.6678L54.8162 20.8791ZM57.2207 17.5078C57.983 16.3644 58.6804 15.2272 59.3124 14.0962L57.5665 13.1206C56.9616 14.2031 56.2917 15.2957 55.5566 16.3984L57.2207 17.5078ZM59.3069 14.1059C59.956 12.9741 60.5095 11.8932 60.9652 10.8637L59.1364 10.0542C58.7131 11.0104 58.1924 12.0292 57.572 13.1109L59.3069 14.1059ZM60.9622 10.8706C61.4336 9.82665 61.7956 8.85711 62.0405 7.96491L60.1118 7.43548C59.901 8.20344 59.5794 9.07308 59.1394 10.0474L60.9622 10.8706ZM62.0418 7.96017C62.2864 7.05154 62.4032 6.21178 62.3413 5.46871L60.3482 5.6348C60.3839 6.06361 60.3217 6.65614 60.1106 7.44022L62.0418 7.96017Z" fill="#AD7F15"/>
</svg>
